# xmcd
#
# Track frame offsets:
#	150
#	8492
#	22897
#	33680
#	46391
#	56937
#	71554
#	84915
#	97420
#	107952
#	122379
#	131606
#
# Disc length: 1948 seconds
#
# Revision: 2
# Processed by: cddbd v1.5.2PL0 Copyright (c) Steve Scherf et al.
# Submitted via: EasyCDDAExtractor 12.0.1.1
#
DISCID=9e079a0c
DTITLE=Jim Reeves - Twelve Songs Of Christmas
DYEAR=2000
DGENRE=Country
TTITLE0=Jingle Bells
TTITLE1=Blue Christmas
TTITLE2=Senor Santa Claus
TTITLE3=An Old Christmas Card
TTITLE4=The Merry Christmas Polka
TTITLE5=White Christmas
TTITLE6=Silver Bells
TTITLE7=C-H-R-I-S-T-M-A-S
TTITLE8=O Little Town Of Bethlehem
TTITLE9=Mary's Little Boy Child
TTITLE10=Oh Come, All Ye Faithful (Adeste Fideles)
TTITLE11=Silent Night
EXTD=
EXTT0=
EXTT1=
EXTT2=
EXTT3=
EXTT4=
EXTT5=
EXTT6=
EXTT7=
EXTT8=
EXTT9=
EXTT10=
EXTT11=
PLAYORDER=
